<mxfile host="app.diagrams.net" agent="Mozilla/5.0 (Windows NT 10.0; Win64; x64) AppleWebKit/537.36 (KHTML, like Gecko) Chrome/127.0.0.0 Safari/537.36 Edg/127.0.0.0" version="24.7.7">
  <diagram name="Page-1" id="929967ad-93f9-6ef4-fab6-5d389245f69c">
    <mxGraphModel dx="1042" dy="567" grid="1" gridSize="10" guides="1" tooltips="1" connect="1" arrows="1" fold="1" page="1" pageScale="1.5" pageWidth="1169" pageHeight="826" background="none" math="0" shadow="0">
      <root>
        <mxCell id="0" style=";html=1;" />
        <mxCell id="1" style=";html=1;" parent="0" />
        <mxCell id="1672d66443f91eb5-21" style="edgeStyle=none;rounded=0;html=1;dashed=1;endArrow=none;endFill=0;jettySize=auto;orthogonalLoop=1;" parent="1" source="1672d66443f91eb5-6" edge="1">
          <mxGeometry relative="1" as="geometry">
            <mxPoint x="1066.5833333333335" y="655" as="targetPoint" />
          </mxGeometry>
        </mxCell>
        <mxCell id="1672d66443f91eb5-6" value="&lt;p&gt;&amp;lt;&amp;lt;requirement&amp;gt;&amp;gt;&lt;/p&gt;&lt;p&gt;Power&lt;/p&gt;" style="shape=rect;html=1;overflow=fill;whiteSpace=wrap;align=center;fontStyle=1" parent="1" vertex="1">
          <mxGeometry x="1107" y="535" width="160" height="70" as="geometry" />
        </mxCell>
        <mxCell id="1672d66443f91eb5-20" style="edgeStyle=none;rounded=0;html=1;dashed=1;endArrow=none;endFill=0;jettySize=auto;orthogonalLoop=1;" parent="1" source="1672d66443f91eb5-12" target="1672d66443f91eb5-6" edge="1">
          <mxGeometry relative="1" as="geometry" />
        </mxCell>
        <mxCell id="1672d66443f91eb5-12" value="&lt;b&gt;SatisfiedBy&lt;/b&gt;&lt;div&gt;&amp;lt;&amp;lt;block&amp;gt;&amp;gt; PowerSubsystem&lt;/div&gt;" style="shape=note;size=15;align=left;spacingLeft=10;html=1;whiteSpace=wrap;strokeWidth=1;fontSize=12;" parent="1" vertex="1">
          <mxGeometry x="1082" y="825" width="210" height="60" as="geometry" />
        </mxCell>
        <mxCell id="xZ8JRZ_hTXWoaiPQaaHc-1" value="" style="swimlane;startSize=0;" vertex="1" parent="1">
          <mxGeometry x="280" y="160" width="540" height="540" as="geometry" />
        </mxCell>
        <mxCell id="xZ8JRZ_hTXWoaiPQaaHc-2" value="insert card" style="ellipse;whiteSpace=wrap;html=1;" vertex="1" parent="xZ8JRZ_hTXWoaiPQaaHc-1">
          <mxGeometry x="185" y="20" width="120" height="40" as="geometry" />
        </mxCell>
        <mxCell id="xZ8JRZ_hTXWoaiPQaaHc-3" value="insert pin" style="ellipse;whiteSpace=wrap;html=1;" vertex="1" parent="xZ8JRZ_hTXWoaiPQaaHc-1">
          <mxGeometry x="185" y="80" width="120" height="40" as="geometry" />
        </mxCell>
        <mxCell id="xZ8JRZ_hTXWoaiPQaaHc-5" value="view dashboards" style="ellipse;whiteSpace=wrap;html=1;" vertex="1" parent="xZ8JRZ_hTXWoaiPQaaHc-1">
          <mxGeometry x="185" y="140" width="120" height="40" as="geometry" />
        </mxCell>
        <mxCell id="xZ8JRZ_hTXWoaiPQaaHc-6" value="select withdraw" style="ellipse;whiteSpace=wrap;html=1;" vertex="1" parent="xZ8JRZ_hTXWoaiPQaaHc-1">
          <mxGeometry x="185" y="190" width="120" height="40" as="geometry" />
        </mxCell>
        <mxCell id="xZ8JRZ_hTXWoaiPQaaHc-7" value="insert amount" style="ellipse;whiteSpace=wrap;html=1;" vertex="1" parent="xZ8JRZ_hTXWoaiPQaaHc-1">
          <mxGeometry x="185" y="240" width="120" height="40" as="geometry" />
        </mxCell>
        <mxCell id="xZ8JRZ_hTXWoaiPQaaHc-8" value="withdraw amount" style="ellipse;whiteSpace=wrap;html=1;" vertex="1" parent="xZ8JRZ_hTXWoaiPQaaHc-1">
          <mxGeometry x="185" y="290" width="120" height="40" as="geometry" />
        </mxCell>
        <mxCell id="xZ8JRZ_hTXWoaiPQaaHc-9" value="valid balance" style="ellipse;whiteSpace=wrap;html=1;" vertex="1" parent="xZ8JRZ_hTXWoaiPQaaHc-1">
          <mxGeometry x="380" y="250" width="120" height="40" as="geometry" />
        </mxCell>
        <mxCell id="xZ8JRZ_hTXWoaiPQaaHc-11" value="" style="html=1;labelBackgroundColor=#ffffff;startArrow=none;startFill=0;startSize=6;endArrow=classic;endFill=1;endSize=6;jettySize=auto;orthogonalLoop=1;strokeWidth=1;dashed=1;fontSize=14;rounded=0;entryX=0;entryY=0.5;entryDx=0;entryDy=0;" edge="1" parent="xZ8JRZ_hTXWoaiPQaaHc-1" target="xZ8JRZ_hTXWoaiPQaaHc-9">
          <mxGeometry width="60" height="60" relative="1" as="geometry">
            <mxPoint x="305" y="310" as="sourcePoint" />
            <mxPoint x="365" y="250" as="targetPoint" />
          </mxGeometry>
        </mxCell>
        <mxCell id="xZ8JRZ_hTXWoaiPQaaHc-12" value="&amp;lt;&amp;lt;include&amp;gt;&amp;gt;" style="text;html=1;align=center;verticalAlign=middle;resizable=0;points=[];autosize=1;strokeColor=none;fillColor=none;" vertex="1" parent="xZ8JRZ_hTXWoaiPQaaHc-1">
          <mxGeometry x="330" y="280" width="90" height="30" as="geometry" />
        </mxCell>
        <mxCell id="xZ8JRZ_hTXWoaiPQaaHc-13" value="update account" style="ellipse;whiteSpace=wrap;html=1;" vertex="1" parent="xZ8JRZ_hTXWoaiPQaaHc-1">
          <mxGeometry x="390" y="330" width="120" height="40" as="geometry" />
        </mxCell>
        <mxCell id="xZ8JRZ_hTXWoaiPQaaHc-14" value="&amp;lt;&amp;lt;include&amp;gt;&amp;gt;" style="text;html=1;align=center;verticalAlign=middle;resizable=0;points=[];autosize=1;strokeColor=none;fillColor=none;" vertex="1" parent="xZ8JRZ_hTXWoaiPQaaHc-1">
          <mxGeometry x="300" y="330" width="90" height="30" as="geometry" />
        </mxCell>
        <mxCell id="xZ8JRZ_hTXWoaiPQaaHc-16" value="" style="html=1;labelBackgroundColor=#ffffff;startArrow=none;startFill=0;startSize=6;endArrow=classic;endFill=1;endSize=6;jettySize=auto;orthogonalLoop=1;strokeWidth=1;dashed=1;fontSize=14;rounded=0;" edge="1" parent="xZ8JRZ_hTXWoaiPQaaHc-1" target="xZ8JRZ_hTXWoaiPQaaHc-13">
          <mxGeometry width="60" height="60" relative="1" as="geometry">
            <mxPoint x="300" y="320" as="sourcePoint" />
            <mxPoint x="375" y="280" as="targetPoint" />
          </mxGeometry>
        </mxCell>
        <mxCell id="xZ8JRZ_hTXWoaiPQaaHc-17" value="print bill" style="ellipse;whiteSpace=wrap;html=1;" vertex="1" parent="xZ8JRZ_hTXWoaiPQaaHc-1">
          <mxGeometry x="185" y="350" width="120" height="40" as="geometry" />
        </mxCell>
        <mxCell id="xZ8JRZ_hTXWoaiPQaaHc-18" value="Take card" style="ellipse;whiteSpace=wrap;html=1;" vertex="1" parent="xZ8JRZ_hTXWoaiPQaaHc-1">
          <mxGeometry x="185" y="400" width="120" height="40" as="geometry" />
        </mxCell>
        <mxCell id="xZ8JRZ_hTXWoaiPQaaHc-19" value="Actor" style="shape=umlActor;verticalLabelPosition=bottom;verticalAlign=top;html=1;outlineConnect=0;" vertex="1" parent="1">
          <mxGeometry x="150" y="310" width="30" height="60" as="geometry" />
        </mxCell>
        <mxCell id="xZ8JRZ_hTXWoaiPQaaHc-22" value="" style="endArrow=classic;html=1;rounded=0;entryX=0;entryY=0.5;entryDx=0;entryDy=0;" edge="1" parent="1" target="xZ8JRZ_hTXWoaiPQaaHc-2">
          <mxGeometry width="50" height="50" relative="1" as="geometry">
            <mxPoint x="180" y="350" as="sourcePoint" />
            <mxPoint x="220" y="270" as="targetPoint" />
            <Array as="points" />
          </mxGeometry>
        </mxCell>
        <mxCell id="xZ8JRZ_hTXWoaiPQaaHc-23" value="" style="endArrow=classic;html=1;rounded=0;entryX=0;entryY=0.5;entryDx=0;entryDy=0;" edge="1" parent="1" target="xZ8JRZ_hTXWoaiPQaaHc-3">
          <mxGeometry width="50" height="50" relative="1" as="geometry">
            <mxPoint x="180" y="350" as="sourcePoint" />
            <mxPoint x="475" y="210" as="targetPoint" />
            <Array as="points" />
          </mxGeometry>
        </mxCell>
        <mxCell id="xZ8JRZ_hTXWoaiPQaaHc-24" value="" style="endArrow=classic;html=1;rounded=0;entryX=0;entryY=0.5;entryDx=0;entryDy=0;" edge="1" parent="1" target="xZ8JRZ_hTXWoaiPQaaHc-5">
          <mxGeometry width="50" height="50" relative="1" as="geometry">
            <mxPoint x="180" y="350" as="sourcePoint" />
            <mxPoint x="475" y="270" as="targetPoint" />
            <Array as="points" />
          </mxGeometry>
        </mxCell>
        <mxCell id="xZ8JRZ_hTXWoaiPQaaHc-25" value="" style="endArrow=classic;html=1;rounded=0;entryX=0.015;entryY=0.3;entryDx=0;entryDy=0;entryPerimeter=0;" edge="1" parent="1" target="xZ8JRZ_hTXWoaiPQaaHc-6">
          <mxGeometry width="50" height="50" relative="1" as="geometry">
            <mxPoint x="180" y="350" as="sourcePoint" />
            <mxPoint x="475" y="330" as="targetPoint" />
            <Array as="points" />
          </mxGeometry>
        </mxCell>
        <mxCell id="xZ8JRZ_hTXWoaiPQaaHc-26" value="" style="endArrow=classic;html=1;rounded=0;entryX=0;entryY=0.5;entryDx=0;entryDy=0;" edge="1" parent="1" target="xZ8JRZ_hTXWoaiPQaaHc-7">
          <mxGeometry width="50" height="50" relative="1" as="geometry">
            <mxPoint x="180" y="350" as="sourcePoint" />
            <mxPoint x="477" y="372" as="targetPoint" />
            <Array as="points" />
          </mxGeometry>
        </mxCell>
        <mxCell id="xZ8JRZ_hTXWoaiPQaaHc-27" value="" style="endArrow=classic;html=1;rounded=0;entryX=0.015;entryY=0.3;entryDx=0;entryDy=0;entryPerimeter=0;" edge="1" parent="1" target="xZ8JRZ_hTXWoaiPQaaHc-8">
          <mxGeometry width="50" height="50" relative="1" as="geometry">
            <mxPoint x="180" y="350" as="sourcePoint" />
            <mxPoint x="475" y="430" as="targetPoint" />
            <Array as="points" />
          </mxGeometry>
        </mxCell>
        <mxCell id="xZ8JRZ_hTXWoaiPQaaHc-28" value="" style="endArrow=classic;html=1;rounded=0;entryX=0;entryY=0.5;entryDx=0;entryDy=0;" edge="1" parent="1" target="xZ8JRZ_hTXWoaiPQaaHc-17">
          <mxGeometry width="50" height="50" relative="1" as="geometry">
            <mxPoint x="180" y="350" as="sourcePoint" />
            <mxPoint x="477" y="472" as="targetPoint" />
            <Array as="points" />
          </mxGeometry>
        </mxCell>
        <mxCell id="xZ8JRZ_hTXWoaiPQaaHc-29" value="" style="endArrow=classic;html=1;rounded=0;entryX=0;entryY=0.5;entryDx=0;entryDy=0;" edge="1" parent="1" target="xZ8JRZ_hTXWoaiPQaaHc-18">
          <mxGeometry width="50" height="50" relative="1" as="geometry">
            <mxPoint x="180" y="350" as="sourcePoint" />
            <mxPoint x="475" y="540" as="targetPoint" />
            <Array as="points" />
          </mxGeometry>
        </mxCell>
      </root>
    </mxGraphModel>
  </diagram>
</mxfile>
